# xmcd CD database file
#
# Track frame offsets:
#	150
#	19567
#	31849
#	47272
#	70921
#
# Disc length: 1256 seconds
#
# Revision: 0
# Processed by: cddbd v1.5.1PL0 Copyright (c) Steve Scherf et al.
# Submitted via: CDex 1.51
#
DISCID=2f04e605
DTITLE=まっちゃ - アワコトバ
DYEAR=2005
DGENRE=J-Pop
TTITLE0=すなお
TTITLE1=ローレライ
TTITLE2=ヨルノキセキ
TTITLE3=僕には大事な人がいて君にも大事な人がいた
TTITLE4=涙（るい）
EXTD=YEAR: 2005/3/24
EXTT0=
EXTT1=
EXTT2=
EXTT3=
EXTT4=
PLAYORDER=
